<svg xmlns="http://www.w3.org/2000/svg" width="64" height="64" viewBox="0 0 64 64" fill="none">
  <rect width="64" height="64" rx="32" fill="#6D28D9" opacity="0.2"/>
  <path d="M32 16C26.3636 16 21.8182 20.5455 21.8182 26.1818C21.8182 31.8182 26.3636 36.3636 32 36.3636C37.6364 36.3636 42.1818 31.8182 42.1818 26.1818C42.1818 20.5455 37.6364 16 32 16ZM32 33.4545C27.9636 33.4545 24.7273 30.2182 24.7273 26.1818C24.7273 22.1455 27.9636 18.9091 32 18.9091C36.0364 18.9091 39.2727 22.1455 39.2727 26.1818C39.2727 30.2182 36.0364 33.4545 32 33.4545Z" fill="#6D28D9"/>
  <path d="M32 38.5455C23.8545 38.5455 17.4545 44.9455 17.4545 53.0909H20.3636C20.3636 46.5455 25.4545 41.4545 32 41.4545C38.5455 41.4545 43.6364 46.5455 43.6364 53.0909H46.5455C46.5455 44.9455 40.1455 38.5455 32 38.5455Z" fill="#6D28D9"/>
</svg>