<svg xmlns="http://www.w3.org/2000/svg" width="800" height="600" viewBox="0 0 800 600" fill="none">
  <g opacity="0.9">
    <!-- Gaming Controller -->
    <path d="M400 150C311.634 150 240 221.634 240 310C240 398.366 311.634 470 400 470C488.366 470 560 398.366 560 310C560 221.634 488.366 150 400 150Z" fill="#6D28D9" fill-opacity="0.2"/>
    <path d="M400 200C339.249 200 290 249.249 290 310C290 370.751 339.249 420 400 420C460.751 420 510 370.751 510 310C510 249.249 460.751 200 400 200Z" stroke="#8B5CF6" stroke-width="10"/>
    
    <!-- D-Pad -->
    <rect x="320" y="290" width="60" height="20" rx="5" fill="#8B5CF6"/>
    <rect x="340" y="270" width="20" height="60" rx="5" fill="#8B5CF6"/>
    
    <!-- Buttons -->
    <circle cx="460" cy="290" r="15" fill="#EC4899"/>
    <circle cx="490" cy="310" r="15" fill="#3B82F6"/>
    <circle cx="430" cy="310" r="15" fill="#10B981"/>
    <circle cx="460" cy="330" r="15" fill="#F59E0B"/>
    
    <!-- Trophy -->
    <path d="M400 100C386.193 100 375 111.193 375 125V150H425V125C425 111.193 413.807 100 400 100Z" fill="#F59E0B"/>
    <path d="M375 150H425V175C425 188.807 413.807 200 400 200C386.193 200 375 188.807 375 175V150Z" fill="#F59E0B"/>
    <rect x="390" y="200" width="20" height="30" fill="#F59E0B"/>
    <rect x="375" y="230" width="50" height="10" rx="5" fill="#F59E0B"/>
    
    <!-- Esports Text -->
    <path d="M250 500H300V510H250V500Z" fill="#8B5CF6"/>
    <path d="M250 510H270V530H250V510Z" fill="#8B5CF6"/>
    <path d="M250 530H300V540H250V530Z" fill="#8B5CF6"/>
    <path d="M250 540H270V560H250V540Z" fill="#8B5CF6"/>
    <path d="M250 560H300V570H250V560Z" fill="#8B5CF6"/>
    
    <path d="M320 500C337.673 500 350 512.327 350 530C350 547.673 337.673 560 320 560C302.327 560 290 547.673 290 530C290 512.327 302.327 500 320 500Z" stroke="#8B5CF6" stroke-width="10"/>
    
    <path d="M370 500H420V570H370V500Z" fill="#8B5CF6"/>
    <path d="M370 530H410V540H370V530Z" fill="#8B5CF6"/>
    
    <path d="M440 500C457.673 500 470 512.327 470 530C470 547.673 457.673 560 440 560C422.327 560 410 547.673 410 530C410 512.327 422.327 500 440 500Z" stroke="#8B5CF6" stroke-width="10"/>
    
    <path d="M490 500H510V570H490V500Z" fill="#8B5CF6"/>
    <path d="M490 500H540V510H490V500Z" fill="#8B5CF6"/>
    <path d="M490 530H530V540H490V530Z" fill="#8B5CF6"/>
    <path d="M490 560H540V570H490V560Z" fill="#8B5CF6"/>
    
    <!-- Stars -->
    <path d="M200 200L210 220L230 225L215 240L220 260L200 250L180 260L185 240L170 225L190 220L200 200Z" fill="#F59E0B"/>
    <path d="M600 200L610 220L630 225L615 240L620 260L600 250L580 260L585 240L570 225L590 220L600 200Z" fill="#F59E0B"/>
    <path d="M150 400L155 410L165 412L157 420L160 430L150 425L140 430L142 420L135 412L145 410L150 400Z" fill="#F59E0B"/>
    <path d="M650 400L655 410L665 412L657 420L660 430L650 425L640 430L642 420L635 412L645 410L650 400Z" fill="#F59E0B"/>
  </g>
</svg>